<svg width="2976" height="653" xmlns="http://www.w3.org/2000/svg" xmlns:xlink="http://www.w3.org/1999/xlink" overflow="hidden"><defs><clipPath id="clip0"><rect x="0" y="0" width="2976" height="653"/></clipPath></defs><g clip-path="url(#clip0)"><rect x="0" y="0" width="2976" height="653.167" fill="#FFFFFF"/><rect x="2.50005" y="16.5043" width="2963" height="624.159" stroke="#A5A5A5" stroke-width="1.33333" stroke-miterlimit="8" fill="none"/><text font-family="Cambria,Cambria_MSFontService,sans-serif" font-weight="400" font-size="85" transform="matrix(1 0 0 1.00026 1189.43 92)">Geometry fitting<tspan fill="#70AD47" font-weight="700" font-size="48" x="-938.159" y="465.881">Surface</tspan><tspan font-size="48" x="-1174.91" y="-15.9959">2D side view (voxel </tspan></text><text font-family="Cambria Math,Cambria Math_MSFontService,sans-serif" font-weight="400" font-size="48" transform="matrix(1 0 0 1.00026 421.651 76)">ğ‘£<tspan font-size="35" x="23.3533" y="9.99745">ğ‘¥ğ‘¦ğ‘§</tspan></text><text font-family="Cambria,Cambria_MSFontService,sans-serif" font-weight="400" font-size="48" transform="matrix(1 0 0 1.00026 509.098 76)">)</text><rect x="19.5001" y="107.527" width="501" height="502.128" stroke="#000000" stroke-width="1.33333" stroke-miterlimit="8" stroke-dasharray="10.6667 4" fill="none"/><path d="M2455.3 517.966 2561.11 426.05 2570.85 437.268 2465.04 529.184Z" stroke="#2F528F" stroke-width="1.33348" stroke-miterlimit="8" fill="#4472C4" fill-rule="evenodd"/><path d="M2563.35 426.998 2679.95 349.226 2688.19 361.587 2571.59 439.359Z" stroke="#2F528F" stroke-width="1.33344" stroke-miterlimit="8" fill="#4472C4" fill-rule="evenodd"/><path d="M2675.3 343.737 2815.03 333.008 2816.17 347.822 2676.44 358.551Z" stroke="#2F528F" stroke-width="1.33334" stroke-miterlimit="8" fill="#4472C4" fill-rule="evenodd"/><path d="M2823.3 345.906 2899.54 463.521 2887.08 471.605 2810.83 353.989Z" stroke="#2F528F" stroke-width="1.33357" stroke-miterlimit="8" fill="#4472C4" fill-rule="evenodd"/><path d="M2669.5 251.064C2669.5 245.264 2674.65 240.561 2681 240.561 2687.35 240.561 2692.5 245.264 2692.5 251.064 2692.5 256.865 2687.35 261.567 2681 261.567 2674.65 261.567 2669.5 256.865 2669.5 251.064Z" stroke="#000000" stroke-width="1.33333" stroke-miterlimit="8" fill-rule="evenodd"/><path d="M2429 560.428C2556.97 449.332 2684.95 338.236 2768.95 342.19 2852.95 346.143 2886.77 539.342 2933 584.149" stroke="#70AD47" stroke-width="2" stroke-miterlimit="8" fill="none" fill-rule="evenodd"/><rect x="11.5001" y="241.562" width="140" height="15.0038" stroke="#2F528F" stroke-width="1.33333" stroke-miterlimit="8" fill="#4472C4"/><rect x="151.5" y="241.562" width="140" height="15.0038" stroke="#2F528F" stroke-width="1.33333" stroke-miterlimit="8" fill="#4472C4"/><rect x="291.5" y="241.562" width="140" height="15.0038" stroke="#2F528F" stroke-width="1.33333" stroke-miterlimit="8" fill="#4472C4"/><rect x="431.5" y="241.562" width="140" height="15.0038" stroke="#2F528F" stroke-width="1.33333" stroke-miterlimit="8" fill="#4472C4"/><path d="M267.5 249.064C267.5 243.263 272.649 238.561 279 238.561 285.351 238.561 290.5 243.263 290.5 249.064 290.5 254.864 285.351 259.566 279 259.566 272.649 259.566 267.5 254.864 267.5 249.064Z" stroke="#000000" stroke-width="1.33333" stroke-miterlimit="8" fill-rule="evenodd"/><path d="M26 558.427C154.227 447.331 282.454 336.236 366.621 340.189 450.787 344.143 484.68 537.341 531 582.149" stroke="#70AD47" stroke-width="2" stroke-miterlimit="8" fill="none" fill-rule="evenodd"/><path d="M277.851 243.847 250.941 117.903 254.853 117.066 281.763 243.011ZM247.448 120.695 250.807 107.703 259.183 118.186Z" fill="#FF0000"/><text fill="#FF0000" font-family="Cambria Math,Cambria Math_MSFontService,sans-serif" font-weight="400" font-size="48" transform="matrix(0.153638 0.988632 -0.987875 0.153677 275.872 128)">ğ‘‘<tspan font-size="48" x="29.3341" y="-0.00402737">ğ‘›</tspan></text><path d="M56.7819 9.2285 62.6633 14.3132 62.6633 15.6722 56.7819 20.7569 55.54 19.351 59.2891 16.094 53.2562 16.094 44.9957 16.094 39.1971 16.094 39.1971 13.8914 44.9957 13.8914 53.2562 13.8914 59.2891 13.8914 55.54 10.6344Z" fill="#FF0000" fill-rule="evenodd" transform="matrix(0.153675 0.988872 -0.988115 0.153714 321.419 115.125)"/><text fill="#4472C4" font-family="Cambria Math,Cambria Math_MSFontService,sans-serif" font-weight="400" font-size="43" transform="matrix(1 0 0 1.00026 528.611 395)">ğ‘·<tspan font-size="31" x="29.3334" y="8.9977">ğ’™ğ’šğ’›</tspan><tspan font-size="43" x="95.7933" y="0">=</tspan><tspan font-size="43" x="139.48" y="0">ğ‘·</tspan><tspan font-size="31" x="168.813" y="8.9977">ğ’™ğ’šğ’›</tspan><tspan font-size="43" x="232.9" y="0">âˆ’</tspan><tspan font-size="43" x="274.213" y="0">ğ’…</tspan>ğ’</text><path d="M355.868 6.49793 361.138 11.0541 361.138 12.2719 355.868 16.828 354.755 15.5682 358.114 12.6498 350.058 12.6498 345.964 12.6498 345.307 12.6498 337.46 12.6498 333.367 12.6498 333.367 10.6761 337.46 10.6761 345.307 10.6761 345.964 10.6761 350.058 10.6761 358.114 10.6761 354.755 7.75769Z" fill="#4472C4" fill-rule="evenodd" transform="matrix(1 0 0 1.00026 496.971 353.815)"/><path d="M567.5 433.111 753.5 433.111 753.5 412.605 794.5 453.616 753.5 494.626 753.5 474.121 567.5 474.121Z" stroke="#4472C4" stroke-width="1.33333" stroke-miterlimit="8" fill="#FFFFFF" fill-rule="evenodd"/><path d="M845.256 481.328 968.907 415.356 975.898 428.465 852.246 494.437Z" stroke="#2F528F" stroke-width="1.33341" stroke-miterlimit="8" fill="#4472C4" fill-rule="evenodd"/><path d="M968.907 415.356 1092.56 349.384 1099.55 362.493 975.898 428.465Z" stroke="#2F528F" stroke-width="1.33341" stroke-miterlimit="8" fill="#4472C4" fill-rule="evenodd"/><path d="M1092.53 349.327 1216.18 283.355 1223.17 296.464 1099.52 362.436Z" stroke="#2F528F" stroke-width="1.33341" stroke-miterlimit="8" fill="#4472C4" fill-rule="evenodd"/><path d="M1216.18 283.355 1339.83 217.383 1346.82 230.492 1223.17 296.464Z" stroke="#2F528F" stroke-width="1.33341" stroke-miterlimit="8" fill="#4472C4" fill-rule="evenodd"/><path d="M1072.5 251.064C1072.5 245.264 1077.65 240.561 1084 240.561 1090.35 240.561 1095.5 245.264 1095.5 251.064 1095.5 256.865 1090.35 261.567 1084 261.567 1077.65 261.567 1072.5 256.865 1072.5 251.064Z" stroke="#000000" stroke-width="1.33333" stroke-miterlimit="8" fill-rule="evenodd"/><path d="M832 560.428C959.973 449.332 1087.95 338.236 1171.95 342.19 1255.95 346.143 1289.77 539.342 1336 584.149" stroke="#70AD47" stroke-width="2" stroke-miterlimit="8" fill="none" fill-rule="evenodd"/><path d="M964.801 414.868 905.128 300.746 908.673 298.892 968.345 413.014ZM902.511 304.373 902.266 290.956 913.144 298.811Z" fill="#FF0000"/><text fill="#FF0000" font-family="Cambria Math,Cambria Math_MSFontService,sans-serif" font-weight="400" font-size="48" transform="matrix(0.412861 0.911259 -0.910562 0.412966 938.886 312)">ğ‘‘<tspan font-size="48" x="29.5834" y="0.101308">ğ‘›</tspan></text><path d="M56.7862 9.22919 62.668 14.3143 62.668 15.6734 56.7862 20.7585 55.5442 19.3525 59.2936 16.0952 53.2602 16.0952 44.9991 16.0952 39.2001 16.0952 39.2001 13.8925 44.9991 13.8925 53.2602 13.8925 59.2936 13.8925 55.5442 10.6352Z" fill="#FF0000" fill-rule="evenodd" transform="matrix(0.41293 0.911413 -0.910715 0.413036 979.288 287.183)"/><path d="M1.15802-1.63078 116.079 79.9751 113.763 83.2367-1.15802 1.63078ZM116.765 75.5556 123.075 87.396 109.816 85.3402Z" fill="#FF0000" transform="matrix(0.888014 -0.459817 -0.4597 -0.88824 1216.33 283.539)"/><text fill="#FF0000" font-family="Cambria Math,Cambria Math_MSFontService,sans-serif" font-weight="400" font-size="48" transform="matrix(0.405177 -0.914705 0.914005 0.405281 1213.99 237)">ğ‘‘<tspan font-size="48" x="29.4919" y="-0.0583315">ğ‘›</tspan></text><path d="M56.786 9.22916 62.6678 14.3142 62.6678 15.6734 56.786 20.7584 55.544 19.3524 59.2934 16.0952 53.26 16.0952 44.999 16.0952 39.1999 16.0952 39.1999 13.8924 44.999 13.8924 53.26 13.8924 59.2934 13.8924 55.544 10.6352Z" fill="#FF0000" fill-rule="evenodd" transform="matrix(0.405247 -0.914862 0.914162 0.40535 1168.66 222.811)"/><path d="M1640.59 513.232 1753.28 429.908 1762.11 441.855 1649.41 525.18Z" stroke="#2F528F" stroke-width="1.33345" stroke-miterlimit="8" fill="#4472C4" fill-rule="evenodd"/><path d="M1753.28 429.908 1865.98 346.583 1874.81 358.531 1762.11 441.855Z" stroke="#2F528F" stroke-width="1.33345" stroke-miterlimit="8" fill="#4472C4" fill-rule="evenodd"/><path d="M1876.3 277.311 1998.91 345.218 1991.71 358.216 1869.11 290.309Z" stroke="#2F528F" stroke-width="1.33341" stroke-miterlimit="8" fill="#4472C4" fill-rule="evenodd"/><path d="M1998.9 345.218 2121.5 413.125 2114.31 426.123 1991.71 358.216Z" stroke="#2F528F" stroke-width="1.33341" stroke-miterlimit="8" fill="#4472C4" fill-rule="evenodd"/><path d="M1858.5 251.064C1858.5 245.264 1863.42 240.561 1869.5 240.561 1875.58 240.561 1880.5 245.264 1880.5 251.064 1880.5 256.865 1875.58 261.567 1869.5 261.567 1863.42 261.567 1858.5 256.865 1858.5 251.064Z" stroke="#000000" stroke-width="1.33333" stroke-miterlimit="8" fill-rule="evenodd"/><path d="M1617 560.428C1745.23 449.332 1873.45 338.236 1957.62 342.19 2041.79 346.143 2075.68 539.342 2122 584.149" stroke="#70AD47" stroke-width="2" stroke-miterlimit="8" fill="none" fill-rule="evenodd"/><path d="M1686.11 475.516 1603.13 377.04 1606.19 374.462 1689.16 472.937ZM1601.36 381.148 1598.21 368.103 1610.53 373.413Z" fill="#FF0000"/><text fill="#FF0000" font-family="Cambria Math,Cambria Math_MSFontService,sans-serif" font-weight="400" font-size="48" transform="matrix(0.600424 0.80009 -0.799478 0.600577 1643.96 387)">ğ‘‘<tspan font-size="48" x="29.7671" y="0.305771">ğ‘›</tspan></text><path d="M56.7917 9.23009 62.6741 14.3157 62.6741 15.6749 56.7917 20.7605 55.5496 19.3544 59.2993 16.0968 53.2654 16.0968 45.0035 16.0968 39.2039 16.0968 39.2039 13.8938 45.0035 13.8938 53.2654 13.8938 59.2993 13.8938 55.5496 10.6362Z" fill="#FF0000" fill-rule="evenodd" transform="matrix(0.600467 0.800147 -0.799535 0.60062 1678.05 354.306)"/><path d="M1798.33 393.749 1715.35 295.273 1718.41 292.695 1801.39 391.17ZM1713.58 299.382 1710.43 286.336 1722.76 291.646Z" fill="#FF0000"/><text fill="#FF0000" font-family="Cambria Math,Cambria Math_MSFontService,sans-serif" font-weight="400" font-size="48" transform="matrix(0.600424 0.80009 -0.799478 0.600577 1754.19 303)">ğ‘‘<tspan font-size="48" x="29.7671" y="0.305771">ğ‘›</tspan></text><path d="M56.7917 9.23009 62.6741 14.3157 62.6741 15.6749 56.7917 20.7605 55.5496 19.3544 59.2993 16.0968 53.2654 16.0968 45.0035 16.0968 39.2039 16.0968 39.2039 13.8938 45.0035 13.8938 53.2654 13.8938 59.2993 13.8938 55.5496 10.6362Z" fill="#FF0000" fill-rule="evenodd" transform="matrix(0.600467 0.800147 -0.799535 0.60062 1788.27 270.517)"/><path d="M1.15802-1.63078 116.079 79.9751 113.763 83.2367-1.15802 1.63078ZM116.765 75.5556 123.075 87.396 109.816 85.3402Z" fill="#FF0000" transform="matrix(0.888014 -0.459817 -0.4597 -0.88824 1934.83 306.908)"/><text fill="#FF0000" font-family="Cambria Math,Cambria Math_MSFontService,sans-serif" font-weight="400" font-size="48" transform="matrix(0.405177 -0.914705 0.914005 0.405281 1932.49 260)">ğ‘‘<tspan font-size="48" x="29.4918" y="-0.0584431">ğ‘›</tspan></text><path d="M56.786 9.22916 62.6678 14.3142 62.6678 15.6734 56.786 20.7584 55.544 19.3524 59.2934 16.0952 53.26 16.0952 44.999 16.0952 39.1999 16.0952 39.1999 13.8924 44.999 13.8924 53.26 13.8924 59.2934 13.8924 55.544 10.6352Z" fill="#FF0000" fill-rule="evenodd" transform="matrix(0.405247 -0.914862 0.914162 0.40535 1887.16 246.185)"/><path d="M1.15797-1.63071 116.075 79.9717 113.759 83.2332-1.15797 1.63071ZM116.76 75.5523 123.07 87.3922 109.812 85.3365Z" fill="#FF0000" transform="matrix(0.975935 -0.218061 -0.218006 -0.976184 2061.06 379.143)"/><text fill="#FF0000" font-family="Cambria Math,Cambria Math_MSFontService,sans-serif" font-weight="400" font-size="48" transform="matrix(0.624963 -0.781053 0.780455 0.625123 2074.8 329)">ğ‘‘<tspan font-size="48" x="29.4133" y="-0.0426998">ğ‘›</tspan></text><path d="M56.7926 9.23023 62.675 14.3159 62.675 15.6752 56.7926 20.7608 55.5504 19.3547 59.3002 16.097 53.2662 16.097 45.0042 16.097 39.2045 16.097 39.2045 13.894 45.0042 13.894 53.2662 13.894 59.3002 13.894 55.5504 10.6364Z" fill="#FF0000" fill-rule="evenodd" transform="matrix(0.624998 -0.781097 0.780499 0.625158 2034.47 304.282)"/><path d="M1355.5 433.111 1541.5 433.111 1541.5 412.605 1582.5 453.616 1541.5 494.626 1541.5 474.121 1355.5 474.121Z" stroke="#4472C4" stroke-width="1.33333" stroke-miterlimit="8" fill="#FFFFFF" fill-rule="evenodd"/><path d="M2170.5 433.111 2356.5 433.111 2356.5 412.605 2397.5 453.616 2356.5 494.626 2356.5 474.121 2170.5 474.121Z" stroke="#4472C4" stroke-width="1.33333" stroke-miterlimit="8" fill="#FFFFFF" fill-rule="evenodd"/></g></svg>